# Blender v2.79 (sub 0) OBJ File: 'Arena - BasicHex.blend'
# www.blender.org
mtllib Arena - Floor.mtl
o Main_-_Hex_Copy_Circle.023
v 0.000000 0.000000 -25.000000
v -21.650637 0.000000 -12.499999
v -21.650635 0.000000 12.500002
v 0.000002 0.000000 25.000000
v 21.650637 0.000000 12.499998
v 21.650637 0.000000 -12.499998
v -21.650637 0.500000 -12.499999
v 0.000000 0.500000 -25.000000
v -21.650635 0.500000 12.500002
v 0.000002 0.500000 25.000000
v 21.650637 0.500000 12.499998
v 21.650637 0.500000 -12.499998
v 0.000001 0.500000 0.000001
vt 0.083383 0.288700
vt 0.000060 0.144380
vt 0.083383 0.000060
vt 0.166707 0.144380
vt 0.333353 0.144380
vt 0.250030 0.288700
vt 0.250030 0.000060
vt 0.666647 0.288820
vt 0.666647 0.372144
vt 0.500000 0.372144
vt 0.500000 0.288820
vt 0.333353 0.288820
vt 0.333353 0.372144
vt 0.166707 0.372144
vt 0.166707 0.288820
vt 0.999940 0.288820
vt 0.999940 0.372144
vt 0.833293 0.372144
vt 0.833293 0.288820
vt 0.000060 0.372144
vt 0.000060 0.288820
vn 0.0000 1.0000 0.0000
vn 1.0000 0.0000 0.0000
vn -0.5000 0.0000 0.8660
vn -0.5000 0.0000 -0.8660
vn 0.5000 0.0000 -0.8660
vn 0.5000 0.0000 0.8660
vn -1.0000 0.0000 0.0000
usemtl None
s off
f 9/1/1 10/2/1 11/3/1 13/4/1
f 8/5/1 7/6/1 9/1/1 13/4/1
f 11/3/1 12/7/1 8/5/1 13/4/1
f 6/8/2 12/9/2 11/10/2 5/11/2
f 4/12/3 10/13/3 9/14/3 3/15/3
f 2/16/4 7/17/4 8/18/4 1/19/4
f 1/19/5 8/18/5 12/9/5 6/8/5
f 5/11/6 11/10/6 10/13/6 4/12/6
f 3/15/7 9/14/7 7/20/7 2/21/7
